<svg aria-labelledby="chart-title chart-desc" height="640.00" role="img" viewBox="0 0 960.00 640.00" width="960.00" xmlns="http://www.w3.org/2000/svg"><title id="chart-title">先描述位置，再提出條件</title>
<desc id="chart-desc">人工日 K 線圖，左側在區間下緣出現收高 K 線，右側在區間上緣出現收高 K 線，說明相同顏色不能直接代表相同結論。</desc>
<style>.chart-heading{font:600 18px sans-serif;fill:#202124}.axis{stroke:#9aa0a6;stroke-width:1}.axis-label{font:12px sans-serif;fill:#3c4043}.legend-text,.annotation-label,.indicator-label{font:12px sans-serif;fill:#202124}.candle-wick{stroke-width:1.25}.volume-bar{fill-opacity:.55}.annotation{stroke-dasharray:4 3}.indicator-line{stroke-width:1.5}.sma{stroke:#1565c0}.ema{stroke:#8e24aa}.bollinger{stroke:#ef6c00}.atr{stroke:#455a64}.rsi{stroke:#00695c}.kd-k{stroke:#1565c0}.kd-d{stroke:#ef6c00}.macd{stroke:#6a1b9a}.macd-signal{stroke:#d81b60}.macd-histogram{stroke:#546e7a}</style>
<defs><marker id="arrowhead" markerHeight="6.00" markerWidth="6.00" orient="auto" refX="5.00" refY="3.00"><path d="M 0 0 L 6 3 L 0 6 z" fill="#5d4037" /></marker></defs>
<text class="chart-heading" x="72.00" y="30.00">先描述位置，再提出條件</text>
<g class="axes"><line class="axis" x1="72.00" x2="72.00" y1="100.00" y2="535.00" /><line class="axis" x1="72.00" x2="928.00" y1="390.00" y2="390.00" /><line class="axis" x1="72.00" x2="928.00" y1="535.00" y2="535.00" /><text class="axis-label" x="12.00" y="100.00">價格</text><text class="axis-label" x="16.00" y="112.00">108.65</text><text class="axis-label" x="16.00" y="245.00">101.50</text><text class="axis-label" x="16.00" y="390.00">94.35</text><text class="axis-label" x="12.00" y="442.00">成交量</text><text class="axis-label" x="908.00" y="557.00">日期</text></g>
<g class="date-labels"><text class="axis-label" text-anchor="start" x="72.00" y="573.00">2024-01-02</text><text class="axis-label" text-anchor="end" x="928.00" y="573.00">2024-01-11</text></g>
<g class="price-candles"><line class="candle-wick up" data-direction="up" stroke="#c62828" x1="72.00" x2="72.00" y1="174.02" y2="315.98" /><rect class="candle-body up hollow" data-direction="up" fill="none" height="60.84" stroke="#c62828" stroke-width="1.50" width="18.00" x="63.00" y="214.58" /><line class="candle-wick down" data-direction="down" stroke="#2e7d32" x1="194.29" x2="194.29" y1="153.74" y2="295.70" /><rect class="candle-body down solid" data-direction="down" fill="#2e7d32" height="60.84" stroke="#2e7d32" stroke-width="1.50" width="18.00" x="185.29" y="214.58" /><line class="candle-wick down" data-direction="down" stroke="#2e7d32" x1="316.57" x2="316.57" y1="234.86" y2="376.82" /><rect class="candle-body down solid" data-direction="down" fill="#2e7d32" height="60.84" stroke="#2e7d32" stroke-width="1.50" width="18.00" x="307.57" y="275.42" /><line class="candle-wick up" data-direction="up" stroke="#c62828" x1="438.86" x2="438.86" y1="255.14" y2="356.54" /><rect class="candle-body up hollow" data-direction="up" fill="none" height="60.84" stroke="#c62828" stroke-width="1.50" width="18.00" x="429.86" y="275.42" /><line class="candle-wick up" data-direction="up" stroke="#c62828" x1="561.14" x2="561.14" y1="133.46" y2="295.70" /><rect class="candle-body up hollow" data-direction="up" fill="none" height="121.68" stroke="#c62828" stroke-width="1.50" width="18.00" x="552.14" y="153.74" /><line class="candle-wick down" data-direction="down" stroke="#2e7d32" x1="683.43" x2="683.43" y1="113.18" y2="234.86" /><rect class="candle-body down solid" data-direction="down" fill="#2e7d32" height="60.84" stroke="#2e7d32" stroke-width="1.50" width="18.00" x="674.43" y="153.74" /><line class="candle-wick down" data-direction="down" stroke="#2e7d32" x1="805.71" x2="805.71" y1="174.02" y2="275.42" /><rect class="candle-body down solid" data-direction="down" fill="#2e7d32" height="40.56" stroke="#2e7d32" stroke-width="1.50" width="18.00" x="796.71" y="214.58" /><line class="candle-wick up" data-direction="up" stroke="#c62828" x1="928.00" x2="928.00" y1="194.30" y2="295.70" /><rect class="candle-body up hollow" data-direction="up" fill="none" height="40.56" stroke="#c62828" stroke-width="1.50" width="18.00" x="919.00" y="214.58" /></g>
<g class="volume-bars"><rect class="volume-bar up" data-direction="up" fill="#c62828" height="83.42" width="18.00" x="63.00" y="451.58" /><rect class="volume-bar down" data-direction="down" fill="#2e7d32" height="89.18" width="18.00" x="185.29" y="445.82" /><rect class="volume-bar down" data-direction="down" fill="#2e7d32" height="100.68" width="18.00" x="307.57" y="434.32" /><rect class="volume-bar up" data-direction="up" fill="#c62828" height="93.49" width="18.00" x="429.86" y="441.51" /><rect class="volume-bar up" data-direction="up" fill="#c62828" height="105.00" width="18.00" x="552.14" y="430.00" /><rect class="volume-bar down" data-direction="down" fill="#2e7d32" height="87.74" width="18.00" x="674.43" y="447.26" /><rect class="volume-bar down" data-direction="down" fill="#2e7d32" height="80.55" width="18.00" x="796.71" y="454.45" /><rect class="volume-bar up" data-direction="up" fill="#c62828" height="84.86" width="18.00" x="919.00" y="450.14" /></g>
<g class="legend"><rect class="legend-up hollow" fill="none" height="10.00" stroke="#c62828" width="14.00" x="600.00" y="48.00" /><rect class="legend-down solid" fill="#2e7d32" height="10.00" stroke="#2e7d32" width="14.00" x="690.00" y="48.00" /><line class="legend-doji cross" stroke="#5f6368" x1="782.00" x2="796.00" y1="53.00" y2="53.00" /><text class="legend-text" x="520.00" y="72.00">圖例：紅色空心＝上漲；綠色實心＝下跌；灰色十字＝平盤</text></g>
<g class="annotations"><text class="annotation label" data-annotation="label" x="357.33" y="229.86">收高是事實</text><rect class="annotation zone" data-annotation="zone" fill="#5b8ff9" fill-opacity="0.16" height="162.24" stroke="#356ae6" width="285.33" x="72.00" y="214.58" /><text class="annotation-label" x="75.00" y="228.58">區間下緣：先找確認條件</text><rect class="annotation zone" data-annotation="zone" fill="#5b8ff9" fill-opacity="0.16" height="162.24" stroke="#356ae6" width="285.33" x="642.67" y="113.18" /><text class="annotation-label" x="645.67" y="127.18">區間上緣：先寫失效條件</text></g>

</svg>