<svg aria-labelledby="chart-title chart-desc" height="640.00" role="img" viewBox="0 0 960.00 640.00" width="960.00" xmlns="http://www.w3.org/2000/svg"><title id="chart-title">實體與影線需要位置和後續資料</title>
<desc id="chart-desc">台積電 2330 於 2024 年 1 月 29 日至 2 月 5 日的官方原始日線，標示收低實體、下影線和收高 K 線，提醒讀者不可只憑顏色判斷強弱。</desc>
<style>.chart-heading{font:600 18px sans-serif;fill:#202124}.axis{stroke:#9aa0a6;stroke-width:1}.axis-label{font:12px sans-serif;fill:#3c4043}.legend-text,.annotation-label,.indicator-label{font:12px sans-serif;fill:#202124}.candle-wick{stroke-width:1.25}.volume-bar{fill-opacity:.55}.annotation{stroke-dasharray:4 3}.indicator-line{stroke-width:1.5}.sma{stroke:#1565c0}.ema{stroke:#8e24aa}.bollinger{stroke:#ef6c00}.atr{stroke:#455a64}.rsi{stroke:#00695c}.kd-k{stroke:#1565c0}.kd-d{stroke:#ef6c00}.macd{stroke:#6a1b9a}.macd-signal{stroke:#d81b60}.macd-histogram{stroke:#546e7a}</style>
<defs><marker id="arrowhead" markerHeight="6.00" markerWidth="6.00" orient="auto" refX="5.00" refY="3.00"><path d="M 0 0 L 6 3 L 0 6 z" fill="#5d4037" /></marker></defs>
<text class="chart-heading" x="72.00" y="30.00">測試圖表：實體與影線需要位置和後續資料</text>
<g class="axes"><line class="axis" x1="72.00" x2="72.00" y1="100.00" y2="535.00" /><line class="axis" x1="72.00" x2="928.00" y1="390.00" y2="390.00" /><line class="axis" x1="72.00" x2="928.00" y1="535.00" y2="535.00" /><text class="axis-label" x="12.00" y="100.00">價格</text><text class="axis-label" x="16.00" y="112.00">649.45</text><text class="axis-label" x="16.00" y="245.00">633.50</text><text class="axis-label" x="16.00" y="390.00">617.55</text><text class="axis-label" x="12.00" y="442.00">成交量</text><text class="axis-label" x="908.00" y="557.00">日期</text></g>
<g class="date-labels"><text class="axis-label" text-anchor="start" x="72.00" y="573.00">2024-01-29</text><text class="axis-label" text-anchor="end" x="928.00" y="573.00">2024-02-05</text></g>
<g class="price-candles"><line class="candle-wick up" data-direction="up" stroke="#c62828" x1="72.00" x2="72.00" y1="113.18" y2="149.55" /><rect class="candle-body up hollow" data-direction="up" fill="none" height="18.18" stroke="#c62828" stroke-width="1.50" width="18.00" x="63.00" y="113.18" /><line class="candle-wick doji" data-direction="doji" stroke="#5f6368" x1="243.20" x2="243.20" y1="122.27" y2="167.73" /><line class="candle-body doji cross" data-direction="doji" stroke="#5f6368" stroke-width="2.00" x1="234.20" x2="252.20" y1="167.73" y2="167.73" /><line class="candle-wick down" data-direction="down" stroke="#2e7d32" x1="414.40" x2="414.40" y1="213.18" y2="313.18" /><rect class="candle-body down solid" data-direction="down" fill="#2e7d32" height="54.55" stroke="#2e7d32" stroke-width="1.50" width="18.00" x="405.40" y="240.45" /><line class="candle-wick up" data-direction="up" stroke="#c62828" x1="585.60" x2="585.60" y1="295.00" y2="376.82" /><rect class="candle-body up hollow" data-direction="up" fill="none" height="27.27" stroke="#c62828" stroke-width="1.50" width="18.00" x="576.60" y="295.00" /><line class="candle-wick up" data-direction="up" stroke="#c62828" x1="756.80" x2="756.80" y1="231.36" y2="295.00" /><rect class="candle-body up hollow" data-direction="up" fill="none" height="18.18" stroke="#c62828" stroke-width="1.50" width="18.00" x="747.80" y="231.36" /><line class="candle-wick up" data-direction="up" stroke="#c62828" x1="928.00" x2="928.00" y1="122.27" y2="204.09" /><rect class="candle-body up hollow" data-direction="up" fill="none" height="9.09" stroke="#c62828" stroke-width="1.50" width="18.00" x="919.00" y="131.36" /></g>
<g class="volume-bars"><rect class="volume-bar up" data-direction="up" fill="#c62828" height="65.20" width="18.00" x="63.00" y="469.80" /><rect class="volume-bar doji" data-direction="doji" fill="#5f6368" height="88.30" width="18.00" x="234.20" y="446.70" /><rect class="volume-bar down" data-direction="down" fill="#2e7d32" height="103.95" width="18.00" x="405.40" y="431.05" /><rect class="volume-bar up" data-direction="up" fill="#c62828" height="102.57" width="18.00" x="576.60" y="432.43" /><rect class="volume-bar up" data-direction="up" fill="#c62828" height="60.76" width="18.00" x="747.80" y="474.24" /><rect class="volume-bar up" data-direction="up" fill="#c62828" height="105.00" width="18.00" x="919.00" y="430.00" /></g>
<g class="legend"><rect class="legend-up hollow" fill="none" height="10.00" stroke="#c62828" width="14.00" x="600.00" y="48.00" /><rect class="legend-down solid" fill="#2e7d32" height="10.00" stroke="#2e7d32" width="14.00" x="690.00" y="48.00" /><line class="legend-doji cross" stroke="#5f6368" x1="782.00" x2="796.00" y1="53.00" y2="53.00" /><text class="legend-text" x="520.00" y="72.00">圖例：紅色空心＝上漲；綠色實心＝下跌；灰色十字＝平盤</text></g>
<g class="annotations"><text class="annotation label" data-annotation="label" x="316.57" y="180.91">1/31：實心，收盤低於開盤</text><text class="annotation label" data-annotation="label" x="438.86" y="253.64">2/1：下影線與收盤位置</text></g>

</svg>