<svg aria-labelledby="chart-title chart-desc" height="640.00" role="img" viewBox="0 0 960.00 640.00" width="960.00" xmlns="http://www.w3.org/2000/svg"><title id="chart-title">6488：第一階段決策日前的原始日線</title>
<desc id="chart-desc">6488 於 2024 年 5 月 2 日至 5 月 17 日的官方原始日 K 線與成交量，圖表停在第一個決策日，不含右側資料。</desc>
<style>.chart-heading{font:600 18px sans-serif;fill:#202124}.axis{stroke:#9aa0a6;stroke-width:1}.axis-label{font:12px sans-serif;fill:#3c4043}.legend-text,.annotation-label,.indicator-label{font:12px sans-serif;fill:#202124}.candle-wick{stroke-width:1.25}.volume-bar{fill-opacity:.55}.annotation{stroke-dasharray:4 3}.indicator-line{stroke-width:1.5}.sma{stroke:#1565c0}.ema{stroke:#8e24aa}.bollinger{stroke:#ef6c00}.atr{stroke:#455a64}.rsi{stroke:#00695c}.kd-k{stroke:#1565c0}.kd-d{stroke:#ef6c00}.macd{stroke:#6a1b9a}.macd-signal{stroke:#d81b60}.macd-histogram{stroke:#546e7a}</style>
<defs><marker id="arrowhead" markerHeight="6.00" markerWidth="6.00" orient="auto" refX="5.00" refY="3.00"><path d="M 0 0 L 6 3 L 0 6 z" fill="#5d4037" /></marker></defs>
<text class="chart-heading" x="72.00" y="30.00">6488：第一階段決策日前的原始日線</text>
<g class="axes"><line class="axis" x1="72.00" x2="72.00" y1="100.00" y2="535.00" /><line class="axis" x1="72.00" x2="928.00" y1="390.00" y2="390.00" /><line class="axis" x1="72.00" x2="928.00" y1="535.00" y2="535.00" /><text class="axis-label" x="12.00" y="100.00">價格</text><text class="axis-label" x="16.00" y="112.00">535.55</text><text class="axis-label" x="16.00" y="245.00">518.50</text><text class="axis-label" x="16.00" y="390.00">501.45</text><text class="axis-label" x="12.00" y="442.00">成交量</text><text class="axis-label" x="908.00" y="557.00">日期</text></g>
<g class="date-labels"><text class="axis-label" text-anchor="start" x="72.00" y="573.00">2024-05-02</text><text class="axis-label" text-anchor="end" x="928.00" y="573.00">2024-05-17</text></g>
<g class="price-candles"><line class="candle-wick down" data-direction="down" stroke="#2e7d32" x1="72.00" x2="72.00" y1="240.75" y2="291.77" /><rect class="candle-body down solid" data-direction="down" fill="#2e7d32" height="42.52" stroke="#2e7d32" stroke-width="1.50" width="18.00" x="63.00" y="240.75" /><line class="candle-wick doji" data-direction="doji" stroke="#5f6368" x1="149.82" x2="149.82" y1="181.22" y2="257.76" /><line class="candle-body doji cross" data-direction="doji" stroke="#5f6368" stroke-width="2.00" x1="140.82" x2="158.82" y1="232.24" y2="232.24" /><line class="candle-wick up" data-direction="up" stroke="#c62828" x1="227.64" x2="227.64" y1="138.70" y2="198.23" /><rect class="candle-body up hollow" data-direction="up" fill="none" height="17.01" stroke="#c62828" stroke-width="1.50" width="18.00" x="218.64" y="155.70" /><line class="candle-wick down" data-direction="down" stroke="#2e7d32" x1="305.45" x2="305.45" y1="113.18" y2="232.24" /><rect class="candle-body down solid" data-direction="down" fill="#2e7d32" height="51.03" stroke="#2e7d32" stroke-width="1.50" width="18.00" x="296.45" y="121.69" /><line class="candle-wick down" data-direction="down" stroke="#2e7d32" x1="383.27" x2="383.27" y1="189.72" y2="325.79" /><rect class="candle-body down solid" data-direction="down" fill="#2e7d32" height="110.56" stroke="#2e7d32" stroke-width="1.50" width="18.00" x="374.27" y="189.72" /><line class="candle-wick down" data-direction="down" stroke="#2e7d32" x1="461.09" x2="461.09" y1="291.77" y2="376.82" /><rect class="candle-body down solid" data-direction="down" fill="#2e7d32" height="51.03" stroke="#2e7d32" stroke-width="1.50" width="18.00" x="452.09" y="317.29" /><line class="candle-wick up" data-direction="up" stroke="#c62828" x1="538.91" x2="538.91" y1="274.77" y2="351.30" /><rect class="candle-body up hollow" data-direction="up" fill="none" height="76.54" stroke="#c62828" stroke-width="1.50" width="18.00" x="529.91" y="274.77" /><line class="candle-wick up" data-direction="up" stroke="#c62828" x1="616.73" x2="616.73" y1="249.25" y2="317.29" /><rect class="candle-body up hollow" data-direction="up" fill="none" height="8.50" stroke="#c62828" stroke-width="1.50" width="18.00" x="607.73" y="266.26" /><line class="candle-wick doji" data-direction="doji" stroke="#5f6368" x1="694.55" x2="694.55" y1="266.26" y2="317.29" /><line class="candle-body doji cross" data-direction="doji" stroke="#5f6368" stroke-width="2.00" x1="685.55" x2="703.55" y1="291.77" y2="291.77" /><line class="candle-wick down" data-direction="down" stroke="#2e7d32" x1="772.36" x2="772.36" y1="257.76" y2="325.79" /><rect class="candle-body down solid" data-direction="down" fill="#2e7d32" height="25.51" stroke="#2e7d32" stroke-width="1.50" width="18.00" x="763.36" y="266.26" /><line class="candle-wick up" data-direction="up" stroke="#c62828" x1="850.18" x2="850.18" y1="249.25" y2="291.77" /><rect class="candle-body up hollow" data-direction="up" fill="none" height="17.01" stroke="#c62828" stroke-width="1.50" width="18.00" x="841.18" y="257.76" /><line class="candle-wick up" data-direction="up" stroke="#c62828" x1="928.00" x2="928.00" y1="232.24" y2="274.77" /><rect class="candle-body up hollow" data-direction="up" fill="none" height="8.50" stroke="#c62828" stroke-width="1.50" width="18.00" x="919.00" y="240.75" /></g>
<g class="volume-bars"><rect class="volume-bar down" data-direction="down" fill="#2e7d32" height="35.00" width="18.00" x="63.00" y="500.00" /><rect class="volume-bar doji" data-direction="doji" fill="#5f6368" height="37.48" width="18.00" x="140.82" y="497.52" /><rect class="volume-bar up" data-direction="up" fill="#c62828" height="105.00" width="18.00" x="218.64" y="430.00" /><rect class="volume-bar down" data-direction="down" fill="#2e7d32" height="45.74" width="18.00" x="296.45" y="489.26" /><rect class="volume-bar down" data-direction="down" fill="#2e7d32" height="66.31" width="18.00" x="374.27" y="468.69" /><rect class="volume-bar down" data-direction="down" fill="#2e7d32" height="46.76" width="18.00" x="452.09" y="488.24" /><rect class="volume-bar up" data-direction="up" fill="#c62828" height="30.04" width="18.00" x="529.91" y="504.96" /><rect class="volume-bar up" data-direction="up" fill="#c62828" height="27.46" width="18.00" x="607.73" y="507.54" /><rect class="volume-bar doji" data-direction="doji" fill="#5f6368" height="21.11" width="18.00" x="685.55" y="513.89" /><rect class="volume-bar down" data-direction="down" fill="#2e7d32" height="22.44" width="18.00" x="763.36" y="512.56" /><rect class="volume-bar up" data-direction="up" fill="#c62828" height="23.20" width="18.00" x="841.18" y="511.80" /><rect class="volume-bar up" data-direction="up" fill="#c62828" height="21.60" width="18.00" x="919.00" y="513.40" /></g>
<g class="legend"><rect class="legend-up hollow" fill="none" height="10.00" stroke="#c62828" width="14.00" x="600.00" y="48.00" /><rect class="legend-down solid" fill="#2e7d32" height="10.00" stroke="#2e7d32" width="14.00" x="690.00" y="48.00" /><line class="legend-doji cross" stroke="#5f6368" x1="782.00" x2="796.00" y1="53.00" y2="53.00" /><text class="legend-text" x="520.00" y="72.00">圖例：紅色空心＝上漲；綠色實心＝下跌；灰色十字＝平盤</text></g>
<g class="annotations"><rect class="annotation zone" data-annotation="zone" fill="#5b8ff9" fill-opacity="0.16" height="263.64" stroke="#356ae6" width="856.00" x="72.00" y="113.18" /><text class="annotation-label" x="75.00" y="127.18">第一階段決策區</text></g>

</svg>